# xmcd
#
# Track frame offsets:
#	300
#	17227
#	30498
#	40962
#	54623
#	68570
#	86487
#	102655
#	111505
#	119979
#	127890
#	135090
#	143115
#	159165
#	166214
#	173413
#	180687
#	186387
#	197112
#	204836
#	210007
#	218046
#	230539
#
# Disc length: 3199 seconds
#
# Revision: 0
# Processed by: cddbd v1.5.2PL0 Copyright (c) Steve Scherf et al.
# Submitted via: audiograbber 1.83.01
#
DISCID=3e0c7b17
DTITLE=Sunfly Karaoke - SFDU014
DYEAR=2010
DGENRE=Karaoke CD+G
TTITLE0=Doobie Brothers - Taking It To The Streets
TTITLE1=Greg Champion - The Thing About Football
TTITLE2=Kevin Stephen Johnson - Aussie Rules I Thank You For The Best Years Of 
TTITLE2=Our lives
TTITLE3=Mike Brady - Up There Cazaly
TTITLE4=Mike Brady - One Day In September
TTITLE5=Hunters And Collectors - Holy Grail
TTITLE6=Paul Kelly - Leaps And Bounds
TTITLE7=Fable Singers - Adelaide Theme Song (Pride Of South Australia)
TTITLE8=Fable Singers - Brisbane Theme Song (La Marseillaise)
TTITLE9=Fable Singers - Carlton Theme Song (Lily Of Laguna)
TTITLE10=Fable Singers - Collingwood Theme Song (Goodbye Dolly Gray)
TTITLE11=Fable Singers - Essendon Theme Song (Keep Your Sunnyside Up)
TTITLE12=Fable Singers - Fremantle Theme Song (We Are The Freo Dockers)
TTITLE13=Fable Singers - Geelong Theme Song (Carmen)
TTITLE14=Fable Singers - Hawthorn Theme Song (Yankee Doodle Dandy)
TTITLE15=Fable Singers - Melbourne Theme Song (It's A Grand Old Flag)
TTITLE16=Fable Singers - North Melbourne Theme Song (A Wee Doch And Doris)
TTITLE17=Fable Singers - Port Adelaide Theme Song (The Power To Win)
TTITLE18=Fable Singers - Richmond Theme Song (Row, Row, Row)
TTITLE19=Fable Singers - St. Kilda Theme Song (When The Saints Go Marching
TTITLE20=Fable Singers - Sydney Theme Song (Notre Dame Victory March)
TTITLE21=Fable Singers - West Coast Theme Song (We're Flying High)
TTITLE22=Fable Singers - Bulldogs Theme Song (Sons Of The West)
EXTD=
EXTT0=
EXTT1=
EXTT2=
EXTT3=
EXTT4=
EXTT5=
EXTT6=
EXTT7=
EXTT8=
EXTT9=
EXTT10=
EXTT11=
EXTT12=
EXTT13=
EXTT14=
EXTT15=
EXTT16=
EXTT17=
EXTT18=
EXTT19=
EXTT20=
EXTT21=
EXTT22=
PLAYORDER=
